<?xml version="1.0" encoding="UTF-8" standalone="no"?>
<svg
   xmlns:dc="http://purl.org/dc/elements/1.1/"
   xmlns:cc="http://creativecommons.org/ns#"
   xmlns:rdf="http://www.w3.org/1999/02/22-rdf-syntax-ns#"
   xmlns:svg="http://www.w3.org/2000/svg"
   xmlns="http://www.w3.org/2000/svg"
   xmlns:sodipodi="http://sodipodi.sourceforge.net/DTD/sodipodi-0.dtd"
   xmlns:inkscape="http://www.inkscape.org/namespaces/inkscape"
   width="55.164574mm"
   height="119.30402mm"
   viewBox="0 0 55.164573 119.30402"
   version="1.1"
   id="svg8"
   inkscape:version="1.0.2 (e86c870879, 2021-01-15, custom)"
   sodipodi:docname="logo_teal.svg"
   inkscape:export-filename="\\wsl.localhost\Ubuntu\repos2\projects\magnem\logo_bloodred.png"
   inkscape:export-xdpi="96"
   inkscape:export-ydpi="96">
  <defs
     id="defs2">
    <filter
       inkscape:collect="always"
       style="color-interpolation-filters:sRGB"
       id="filter3651"
       x="-0.070222005"
       width="1.140444"
       y="-0.030059503"
       height="1.060119">
      <feGaussianBlur
         inkscape:collect="always"
         stdDeviation="1.4095193"
         id="feGaussianBlur3653" />
    </filter>
  </defs>
  <sodipodi:namedview
     id="base"
     pagecolor="#ffffff"
     bordercolor="#666666"
     borderopacity="1.0"
     inkscape:pageopacity="0.0"
     inkscape:pageshadow="2"
     inkscape:zoom="0.70000001"
     inkscape:cx="895.09271"
     inkscape:cy="632.1772"
     inkscape:document-units="mm"
     inkscape:current-layer="layer3"
     inkscape:document-rotation="0"
     showgrid="false"
     inkscape:window-width="2560"
     inkscape:window-height="1361"
     inkscape:window-x="4471"
     inkscape:window-y="-9"
     inkscape:window-maximized="1" />
  <metadata
     id="metadata5">
    <rdf:RDF>
      <cc:Work
         rdf:about="">
        <dc:format>image/svg+xml</dc:format>
        <dc:type
           rdf:resource="http://purl.org/dc/dcmitype/StillImage" />
        <dc:title></dc:title>
      </cc:Work>
    </rdf:RDF>
  </metadata>
  <g
     inkscape:label="Layer 1"
     inkscape:groupmode="layer"
     id="layer1"
     transform="translate(355.22636,350.9113)">
    <path
       style="opacity:0.561905;fill:#000000;fill-opacity:1;stroke:none;stroke-width:0.3;stroke-linecap:round;stroke-miterlimit:4;stroke-dasharray:none;stroke-dashoffset:0;stroke-opacity:1;paint-order:stroke fill markers;filter:url(#filter3651)"
       id="path1094-6"
       d="m -348.33979,-279.87819 c 0.371,-8.26861 0.72049,-16.53631 1.22036,-24.79866 0.48223,-8.15904 1.33247,-16.30514 2.73841,-24.3586 -2.20191,1.29032 1.22254,-2.31667 0.60151,-2.00123 -1.13398,0.57597 -2.31722,1.15517 -3.21292,2.05814 -0.22047,0.22227 0.19243,0.59589 0.283,0.89559 1.27773,4.22804 -0.32684,-0.93332 1.33967,4.37509 1.98434,5.72175 4.3298,11.32658 6.91644,16.80224 1.39504,2.95317 3.057,6.13891 4.55054,9.05136 0.24048,0.453 2.81456,5.47878 3.51941,6.23803 0.4036,0.43474 1.0219,1.01571 1.58089,0.81718 1.82139,-0.64686 3.58391,-1.69115 4.89048,-3.11551 0.89215,-0.97255 3.18741,-9.25787 3.29551,-9.61839 2.5603,-10.60083 4.64051,-21.30896 6.84242,-31.98776 0.42077,-2.04068 0.82537,-4.08487 1.27204,-6.12005 0.29641,-1.35046 -0.39766,-1.18718 -0.0786,-2.53246 -0.56796,-1.2442 -1.77037,2.75238 -1.84379,3.02861 -0.64923,2.4421 0.003,5.05391 -0.0233,7.58071 -0.0686,6.80921 -0.29342,14.12398 -0.20987,20.91364 0.0504,4.09543 0.23051,8.18822 0.34576,12.28233 0.27038,4.3371 0.48389,8.67812 0.81108,13.0113 0.7194,9.52717 1.3571,15.47024 2.62263,24.88849 1.23637,9.20132 2.81728,18.34177 4.45304,27.47802 l 2.75516,-1.47131 v 0 c -1.34562,-6.37608 -2.0723,-9.56595 -3.22649,-16.25386 -2.78442,-16.13448 -4.5848,-32.43575 -5.17051,-48.80292 -0.21281,-12.24687 -0.34608,-11.67524 -0.0196,-23.50076 0.0914,-3.31288 0.23146,-6.62438 0.38751,-9.93482 0.12266,-2.60233 0.39677,-6.97989 -0.0239,-9.55094 -1.09956,-6.71992 -2.726,-0.22621 -2.98873,0.35961 -2.59332,14.0762 -5.12371,28.19196 -8.87966,42.01507 -0.63156,1.90341 -1.16366,4.30777 -1.9892,6.13543 -0.66372,1.4694 -3.00791,4.32175 -1.81437,3.49328 0.87149,-0.60493 1.65637,0.1872 1.75514,-0.40505 0.0925,-0.5548 -1.18438,-0.16364 -1.59644,-0.54649 -0.8645,-0.80323 -3.36243,-5.5009 -3.69655,-6.09817 -0.75403,-1.43812 -1.52892,-2.86549 -2.26213,-4.31433 -3.52044,-6.9565 -6.65409,-14.14862 -8.93937,-21.60984 -1.95213,-7.03876 0.26728,1.07484 -1.17213,-4.46855 -0.10264,-0.39529 -0.26553,-1.25631 -0.67017,-1.20086 -3.76531,0.51605 -3.41196,1.29 -3.76605,3.75806 -1.06156,8.03786 -1.90418,16.10873 -2.35559,24.20533 -0.4886,8.35556 -0.86934,16.7256 -1.74535,25.05185 l 3.50393,-1.7488 z"
       sodipodi:nodetypes="cccssscscssscsscccscssccsscsssccsssscscssccccc" />
  </g>
  <g
     inkscape:groupmode="layer"
     id="layer3"
     inkscape:label="Layer 2"
     transform="translate(-75.696398,29.851462)">
    <path
       style="fill:#13657e;fill-opacity:1;stroke:none;stroke-width:0.3;stroke-linecap:round;stroke-miterlimit:4;stroke-dasharray:none;stroke-dashoffset:0;stroke-opacity:1;paint-order:stroke fill markers"
       id="path1094"
       d="m 86.1911,41.315279 c 0.371,-8.26861 0.72049,-16.53631 1.22036,-24.79866 0.48223,-8.1590399 1.33247,-16.30513995 2.73841,-24.3585999 -2.20191,1.29032 1.22254,-2.3166701 0.60151,-2.00123 -1.13398,0.57597 -2.31722,1.15517 -3.21292,2.05814 -0.22047,0.22227 0.19243,0.59589 0.283,0.89559 1.27773,4.22804 -0.32684,-0.93332 1.33967,4.37509 1.98434,5.72175 4.3298,11.32658 6.91644,16.8022399 1.39504,2.95317 3.057,6.13891 4.55054,9.05136 0.24048,0.453 2.81456,5.47878 3.51941,6.23803 0.4036,0.43474 1.0219,1.01571 1.58089,0.81718 1.82139,-0.64686 3.58391,-1.69115 4.89048,-3.11551 0.89215,-0.97255 3.18741,-9.25787 3.29551,-9.61839 2.5603,-10.6008299 4.64051,-21.3089599 6.84242,-31.98776 0.42077,-2.04068 0.82537,-4.08487 1.27204,-6.12005 0.29641,-1.35046 -0.39766,-1.18718 -0.0786,-2.53246 -0.56796,-1.2442 -1.77037,2.75238 -1.84379,3.02861 -0.64923,2.4421 0.003,5.05391 -0.0233,7.58071 -0.0686,6.8092101 -0.29342,14.1239801 -0.20987,20.9136401 0.0504,4.0954299 0.23051,8.1882199 0.34576,12.2823299 0.27038,4.3371 0.48389,8.67812 0.81108,13.0113 0.7194,9.52717 1.3571,15.47024 2.62263,24.88849 1.23637,9.20132 3.51886,17.990979 5.15462,27.127229 0.3041,0.752917 1.66599,0.465258 1.93665,-1.838806 v 0 c 0,0 -1.95537,-8.847663 -3.10956,-15.535573 -2.78442,-16.13448 -4.5848,-32.43575 -5.17051,-48.80292 -0.21281,-12.2468699 -0.34608,-11.6752399 -0.0196,-23.5007599 0.0914,-3.31288 0.23146,-6.6243801 0.38751,-9.9348201 0.12266,-2.60233 0.39677,-6.97989 -0.0239,-9.55094 -1.09956,-6.71992 -2.726,-0.22621 -2.98873,0.35961 -2.59332,14.0762001 -5.12371,28.1919601 -8.87966,42.01507 -0.63156,1.90341 -1.16366,4.30777 -1.9892,6.13543 -0.66372,1.4694 -3.00791,4.32175 -1.81437,3.49328 0.87149,-0.60493 1.65637,0.1872 1.75514,-0.40505 0.0925,-0.5548 -1.18438,-0.16364 -1.59644,-0.54649 -0.8645,-0.80323 -3.36243,-5.5009 -3.69655,-6.09817 -0.75403,-1.43812 -1.52892,-2.86549 -2.26213,-4.31433 -3.52044,-6.9565 -6.65409,-14.1486199 -8.93937,-21.6098399 -1.95213,-7.0387601 0.26728,1.07484 -1.17213,-4.46855 -0.10264,-0.39529 -0.26553,-1.2563101 -0.67017,-1.20086 -3.76531,0.51605 -3.41196,1.29 -3.76605,3.75806 -1.06156,8.03786 -1.90418,16.10873 -2.35559,24.2053299 -0.4886,8.35556 -0.86934,16.7256 -1.74535,25.05185 0.01912,0.387214 3.418347,-0.07039 3.50393,-1.7488 z"
       sodipodi:nodetypes="cccssscscssscsscccscssccsscsssccsssscscssccccc"
       inkscape:export-xdpi="96"
       inkscape:export-ydpi="96" />
  </g>
</svg>
